<svg width="281" height="247" fill="none" xmlns="http://www.w3.org/2000/svg"><g filter="url(#filter0_d)" fill="#FF7F22"><path d="M124.47 107.952a1.705 1.705 0 01-.873.241 1.72 1.72 0 01-1.488-.86 1.757 1.757 0 01.612-2.389l7.038-4.189a1.714 1.714 0 012.362.619c.483.831.209 1.9-.612 2.389l-7.039 4.189z"/><path fill-rule="evenodd" clip-rule="evenodd" d="M190.974 122.041l-1.419-8.193a1.733 1.733 0 00-1.494-1.431l-7.408-.895-2.574-4.812a6.748 6.748 0 00.75-4.798 6.672 6.672 0 00-3.219-4.396l-7.144-4.053a1.714 1.714 0 00-2.348.669c-.466.84-.17 1.903.661 2.375l7.144 4.052c1.643.933 2.122 3.105 1.007 4.656a3.147 3.147 0 01-3.622 1.123l-20.342-7.45a9.124 9.124 0 003.347-4.022 9.226 9.226 0 00.648-5.063l5.703 3.235c.267.152.557.224.842.224.604 0 1.19-.322 1.507-.892a1.757 1.757 0 00-.661-2.375L151.15 83.64a9.138 9.138 0 00-1.562-.875 8.938 8.938 0 00-6.959-.117 9.083 9.083 0 00-5.003 4.896 9.223 9.223 0 00-.531 1.645L104.59 103.65c-4.717.119-9.128 2.5-11.86 6.42a1.757 1.757 0 00.415 2.431 1.712 1.712 0 002.404-.42c2.153-3.089 5.658-4.936 9.382-4.947h.056c6.338.014 11.49 5.233 11.49 11.647 0 6.422-5.165 11.647-11.514 11.647-6.348 0-11.513-5.225-11.513-11.647 0-.307.014-.634.045-.999a1.74 1.74 0 00-1.573-1.886 1.731 1.731 0 00-1.864 1.591 15.178 15.178 0 007.41 14.391L105.35 149h3.805l-7.073-15.363c.933.185 1.896.282 2.881.282 4.231 0 8.057-1.785 10.781-4.65L124.705 149h3.797l-10.276-22.626 27.322-25.758 24.586 9.002a6.46 6.46 0 002.228.395 6.616 6.616 0 003.137-.795l2.12 3.964-3.311 6.763a1.758 1.758 0 00.368 2.048l6.003 5.683a1.714 1.714 0 002.438-.082 1.76 1.76 0 00-.082-2.466l-5.067-4.796 2.599-5.307 5.812.703 1.197 6.915a1.727 1.727 0 001.997 1.417 1.743 1.743 0 001.401-2.019zm-44.997-36.546a5.64 5.64 0 015.243 3.612c1.553 3.98-1.624 8.215-5.831 7.778-3.473-.502-5.315-3.4-5.037-6.245a3.18 3.18 0 00.01-.097c.331-2.88 2.75-5.048 5.615-5.048zm-35.344 19.279l26.423-11.756c.533 2.661 2.217 5.046 4.743 6.362l-21.925 20.671c.035-.419.052-.842.052-1.269 0-6.317-3.846-11.743-9.293-14.008z"/><path d="M119.135 149l-5.18-11.407a1.717 1.717 0 00-2.288-.857 1.754 1.754 0 00-.847 2.314l4.519 9.95h3.796z"/><path fill-rule="evenodd" clip-rule="evenodd" d="M112.588 118.782c0-4.253-3.421-7.713-7.625-7.713-4.204 0-7.625 3.461-7.625 7.713 0 4.253 3.421 7.713 7.625 7.713 4.204 0 7.625-3.46 7.625-7.713zm-11.8 0c0-2.329 1.873-4.223 4.175-4.223 2.302 0 4.175 1.895 4.175 4.223 0 2.329-1.873 4.224-4.175 4.224-2.302 0-4.175-1.895-4.175-4.224z"/></g><defs><filter id="filter0_d" x="-67" y="-30" width="416" height="308" filterUnits="userSpaceOnUse" color-interpolation-filters="sRGB"><feFlood flood-opacity="0" result="BackgroundImageFix"/><feColorMatrix in="SourceAlpha" values="0 0 0 0 0 0 0 0 0 0 0 0 0 0 0 0 0 0 127 0" result="hardAlpha"/><feOffset dy="8"/><feGaussianBlur stdDeviation="45"/><feColorMatrix values="0 0 0 0 1 0 0 0 0 0.497333 0 0 0 0 0.133333 0 0 0 1 0"/><feBlend in2="BackgroundImageFix" result="effect1_dropShadow"/><feBlend in="SourceGraphic" in2="effect1_dropShadow" result="shape"/></filter></defs></svg>