<svg width="260" height="260" fill="none" xmlns="http://www.w3.org/2000/svg"><g filter="url(#filter0_d)" fill="#FF7F22"><path d="M158 89.58V82h-2.667v6.773a9.373 9.373 0 00-1.333-.106h-2.667V82h-2.666v6.667h-4V82H142v6.667h-4V82h-2.667v6.667h-4V82h-2.666v6.667h-4V82H122v6.667h-4V82h-2.667v6.667h-4V82h-2.666v6.667H106a9.431 9.431 0 00-1.333.106V82H102v7.58A9.38 9.38 0 0097.58 94H90v2.667h6.773A9.388 9.388 0 0096.667 98v2.667H90v2.666h6.667v4H90V110h6.667v4H90v2.667h6.667v4H90v2.666h6.667v4H90V130h6.667v4H90v2.667h6.667v4H90v2.666h6.667V146c.004.447.039.892.106 1.333H90V150h7.58a9.384 9.384 0 004.42 4.42V162h2.667v-6.773c.441.067.886.102 1.333.106h2.667V162h2.666v-6.667h4V162H118v-6.667h4V162h2.667v-6.667h4V162h2.666v-6.667h4V162H138v-6.667h4V162h2.667v-6.667h4V162h2.666v-6.667H154a9.431 9.431 0 001.333-.106V162H158v-7.58a9.386 9.386 0 004.42-4.42H170v-2.667h-6.773c.067-.441.102-.886.106-1.333v-2.667H170v-2.666h-6.667v-4H170V134h-6.667v-4H170v-2.667h-6.667v-4H170v-2.666h-6.667v-4H170V114h-6.667v-4H170v-2.667h-6.667v-4H170v-2.666h-6.667V98a9.446 9.446 0 00-.106-1.333H170V94h-7.58a9.383 9.383 0 00-4.42-4.42zm2.667 56.42a6.676 6.676 0 01-6.667 6.667h-48A6.676 6.676 0 0199.333 146V98A6.675 6.675 0 01106 91.333h48A6.676 6.676 0 01160.667 98v48z"/><path d="M152.667 95.333h-45.334c-2.208 0-4 1.792-4 4v45.334c0 2.208 1.792 4 4 4h45.334c2.208 0 4-1.792 4-4V99.333c0-2.208-1.792-4-4-4zM154 144.667c0 .736-.597 1.333-1.333 1.333h-45.334a1.333 1.333 0 01-1.333-1.333V99.333c0-.736.597-1.333 1.333-1.333h45.334c.736 0 1.333.597 1.333 1.333v45.334z"/><path d="M148.667 100.667h2.666v2.666h-2.666v-2.666zm-40 40h2.666v2.666h-2.666v-2.666zm0-37.334v4h2.666v-4h4v-2.666h-4a2.665 2.665 0 00-2.666 2.666zm40 37.334h-4v2.666h6.666v-6.666h-2.666v4z"/></g><defs><filter id="filter0_d" x="-78" y="-24" width="416" height="308" filterUnits="userSpaceOnUse" color-interpolation-filters="sRGB"><feFlood flood-opacity="0" result="BackgroundImageFix"/><feColorMatrix in="SourceAlpha" values="0 0 0 0 0 0 0 0 0 0 0 0 0 0 0 0 0 0 127 0" result="hardAlpha"/><feOffset dy="8"/><feGaussianBlur stdDeviation="45"/><feColorMatrix values="0 0 0 0 1 0 0 0 0 0.497333 0 0 0 0 0.133333 0 0 0 1 0"/><feBlend in2="BackgroundImageFix" result="effect1_dropShadow"/><feBlend in="SourceGraphic" in2="effect1_dropShadow" result="shape"/></filter></defs></svg>