<svg width="268" height="268" fill="none" xmlns="http://www.w3.org/2000/svg"><g filter="url(#filter0_d)"><circle cx="134" cy="126" r="42.5" stroke="#FF7F22" stroke-width="3"/><path d="M155.773 118.427c.114-.323.211-.651.29-.984.182-.969.336-1.1 1.298-1.08a.61.61 0 00.432-.171c.05-.06-.025-.326-.119-.39-.263-.183-.553-.392-.856-.442-.843-.139-.899-.238-.583-1.001.131-.314.103-.699.123-1.052.052-.839.513-1.503.985-2.131.308-.41.939-.156 1.115.386.078.242.161.482.242.723l.138-.036-.423-1.762c.195-.019.301-.061.383-.033.384.134.648 0 .882-.307.166-.222.333-.357.587-.011a9.7 9.7 0 011.852 4.566c.101.707.247 1.407.437 2.095.291 1.116.285 2.24.218 3.422a19.63 19.63 0 00-1.743-4.758l-.123.045c.144.371.282.745.433 1.113.627 1.523.546 3.016-.179 4.487-.074.151-.096.326-.163.481-.141.322-.13.701.199.77.212.044.554-.236.742-.453.187-.218.226-.528.354-.788.087-.153.185-.299.295-.436l.185.054c-.047.383-.069.772-.148 1.149-.103.483-.234.961-.38 1.436-.145.475-.41.561-.744.243-.335-.318-.737-.576-.821-1.128-.043-.278-.367-.513-.564-.767-.182.267-.378.526-.54.804a.458.458 0 00-.023.35c.287.744.359 1.576 1.035 2.159.487.422.286.957-.341 1.155a.535.535 0 00-.315.334c-.23 1.049-1.103 1.26-1.938 1.477a8.338 8.338 0 01-1.612.212c-.138.008-.393-.156-.417-.277a8.426 8.426 0 01-.19-1.517c-.027-1.068-.008-2.135-.008-3.207.718-.062.891-.27.718-1.026-.134-.573-.319-1.134-.522-1.837l-.695 1.482c-.239-.292-.469-.48-.579-.718-.308-.666-.616-1.34-.803-2.041-.11-.41-.019-.877.036-1.313.012-.103.227-.244.364-.263.479-.067.987.285 1.177.762.037.073.081.142.13.206l.179.018zm4.457-3.822l.162-.117-.857-1.19-.162.117.857 1.19z" fill="#FF7F22"/><path d="M152.671 114.19c.083-.717.108-1.272.221-1.802.071-.296.218-.569.428-.789.615-.647 1.128-1.333 1.436-2.201.289-.833.933-1.402 1.89-1.381.267 0 .615.155.764.358.095.128-.037.524-.179.718-.47.628-.676 1.352-.96 2.064-.575 1.436-.48 2.974-.879 4.431-.088.322-.348.827-.56.843-.629.05-1.401.128-1.722-.633-.238-.558-.326-1.174-.439-1.608zm-.573 28.696c-.059.365-.05.623-.146.832a15.072 15.072 0 01-.908 1.765c-.219.349-.591.598-.856.923a15.96 15.96 0 00-1.089 1.461c-.375.583-.651 1.231-1.046 1.801-.276.397-.663.726-1.035 1.045-.549.481-1.122.934-1.717 1.356-.292.205-.689.25-1.005.426-.262.147-.596.336-.685.583-.264.731-.986.65-1.49.941-.009.005-.248-.273-.216-.332.255-.509.544-.999.867-1.468 1.28-1.767 3.024-3.07 4.579-4.565.892-.858 1.708-1.796 2.564-2.693.608-.638 1.224-1.267 1.841-1.897.042-.043.108-.06.342-.178zm-41.661-29.145c.193.015.301-.009.36.035.505.379 1.02.75 1.494 1.168.188.166.103.356-.159.463-.8.333-1.589.694-2.389 1.026-.512.214-1.235-.238-1.442-.883-.186-.583.103-1.033.729-1.218.324-.097.625-.269.938-.402.185-.079.371-.15.469-.189zm38.807 38.898l-1.656 2.301c-.421.583-.808 1.193-1.276 1.734a9.455 9.455 0 01-1.347 1.237c-.22.172-.47.103-.446-.276.016-.237.014-.474.038-.71.054-.513.058-.971.684-1.282.607-.301 1.051-.923 1.589-1.374a74.139 74.139 0 012.014-1.617c.096-.056.2-.098.308-.126l.092.113zm.201-2.572c-.307.439-.531.801-.791 1.139-.353.458-.718.905-1.106 1.333-.074.083-.247.078-.374.114-.054-.199-.213-.453-.142-.586.212-.4.461-.81.792-1.108.382-.344.865-.574 1.308-.848.048-.027.122-.017.313-.044zm-38.802-30.592l.193-.604c.213.065.421.145.622.241.234.135.454.292.659.467.093.078.205.224.188.318-.017.095-.171.186-.285.232-.157.06-.322.098-.489.114-.717.076-.846-.043-.888-.768zm4.36-.617c.155-.538.307-1.057.456-1.572.559.084 1.047.513 1.019.862-.04.532-.471.752-1.475.71zm-.924.343c.34.056.583.059.792.144a.54.54 0 01.182.143.545.545 0 01.103.207c.015.093-.152.299-.25.308-.239.021-.553.033-.706-.103-.13-.123-.083-.444-.121-.699zm-1.033-1.287c.088-.353.118-.712.562-.749.03 0 .138.227.102.308-.101.264-.096.723-.664.441zm3.665 14.595l.678.35c-.058.084-.102.228-.178.241-.341.059-.539-.099-.5-.591zm14.874-20.59c-.169-.221-.316-.368-.296-.396.178-.242.374-.47.585-.684.095.056.181.125.256.206-.144.259-.308.51-.545.874z" fill="#FF7F22"/><path fill-rule="evenodd" clip-rule="evenodd" d="M107.33 108.251a3.858 3.858 0 00-.199.451c-.094.294-.119.609-.145.925-.013.163-.026.327-.049.488-.058.423.247 1.008.701 1.069.206.028.52-.257.679-.477.43-.593 1.109-.806 1.71-.883.66-.085 1.345-.003 2.024.079.191.023.382.046.571.065.668.068 1.272.712 1.477 1.402.053.18.292.336.479.439.109.062.233.105.356.148.177.061.351.122.477.239 1.062.992 1.544 2.309 1.936 3.658.142.452.201.926.174 1.398-.088 1.019-.219 2.035-.349 3.05l-.113.884c-.023.183-.043.367-.063.551-.059.539-.119 1.081-.251 1.603-.094.368-.242.722-.391 1.077-.12.286-.241.572-.332.867-.097.313-.159.638-.221.962-.054.28-.107.56-.183.833-.194.701.058 1.443.713 1.689a5.112 5.112 0 003.938-.123 3.286 3.286 0 011.694-.307c.108.009.215.045.321.08.124.041.247.082.371.082a9.528 9.528 0 013.581.764c.277.114.785.009 1.025-.194.24-.203.425-.7.343-.985-.131-.453.004-.793.145-1.148.025-.064.051-.129.075-.195a.502.502 0 00.066.011c.033.005.055.008.064.021.699.98 1.222 1.994.904 3.273a1.79 1.79 0 01-.821 1.163c-.465.281-.954.575-1.467.711-.437.115-.903.123-1.365.131-.117.002-.233.004-.349.008a.396.396 0 01-.298-.233c-.024-.086.086-.252.181-.318a2.49 2.49 0 01.669-.366l.02-.006c.295-.093.554-.174.448-.569-.087-.322-.318-.296-.545-.27-.044.005-.088.01-.13.012l-.522.027c-.607.031-1.214.063-1.82.111a8.472 8.472 0 00-.947.186c.027.097.061.191.102.283.401.648.374.677-.214 1.142a.88.88 0 00-.318.632c.012.273.075.543.137.814.037.161.074.322.101.484.087.531-.172.738-.674.662a1.134 1.134 0 00-.776.171c-.26.192-.305.518-.073.821a.577.577 0 01.075.239c.044.21.085.422.126.633.09.466.181.931.302 1.388.094.358.334.671.773.596.42-.071.833-.23.709-.789a12.927 12.927 0 00-.453-1.64c-.17-.472.125-.695.424-.857.362-.196.543.118.7.389l.004.007.084.144c.116.199.233.398.34.603.049.091.103.182.158.273.149.248.299.498.331.76.069.571.348.637.828.616 1.402-.063 2.803-.096 4.206-.128l.133-.003c.176-.005.354.006.531.016.267.017.533.033.793-.003a19.665 19.665 0 001.994-.418 4.93 4.93 0 00.559-.183c.157-.058.315-.116.475-.161a20.618 20.618 0 011.57-.38c.11-.021.234.021.356.062.044.015.087.029.13.041.382.104.765.208 1.144.323.058.017.118.032.18.047.181.045.367.091.483.203.56.542 1.073 1.119 1.585 1.703a.465.465 0 01.035.418c-.051.103-.246.228-.349.205-.365-.081-.718-.189-1.072-.297l-.328-.1a2.457 2.457 0 00-.434-.137 4.27 4.27 0 00-2.646.551 5.092 5.092 0 01-.994.481c-.858.271-1.701.561-2.44 1.1-.174.128-.397.272-.595.267-.506-.012-.923.106-1.128.597a8.851 8.851 0 00-.42 1.333c-.027.114.097.287.189.401.381.466.923.536 1.442.416.38-.087.536.027.585.335.06.42.097.844.112 1.268.021.389-.168.588-.568.64-.301.04-.593.126-.867.256a3.818 3.818 0 00-.933.586c-.085.077-.213.128-.342.178-.32.126-.646.254-.334.81-.086.04-.185.067-.283.094-.284.077-.562.153-.493.561.088.508-.209.665-.576.725-.537.088-.569.367-.435.806.139.452.269.907.4 1.361.116.406.232.811.354 1.215.018.059.084.103.15.148.031.02.061.041.087.063.025-.037.056-.073.088-.109.068-.078.136-.155.136-.236.013-.363.015-.727.017-1.09.002-.337.005-.673.015-1.009.004-.1.057-.198.111-.296.025-.046.05-.092.07-.138.132.084.26.176.381.275.117.106.229.217.341.328.201.198.401.396.622.566.228.17.331.305.228.589-.248.684-.18.801.555.912.27.029.543.024.812-.015.265-.024.528-.056.792-.088.389-.047.778-.094 1.168-.117.123-.008.249.057.377.122.072.037.145.075.219.1.065.022.137.054.209.087.184.082.373.167.483.108.394-.21.807-.488 1.049-.848.229-.34.42-.371.783-.349.429.024.872-.064 1.296-.158.199-.044.388-.131.578-.218.091-.042.181-.084.273-.121.098-.039.211-.07.324-.101.245-.067.49-.134.57-.287.216-.419.512-.646.895-.852.202-.126.367-.303.48-.512.127-.221.127-.454-.181-.584-.615-.256-.648-.385-.176-.872.123-.125.293-.207.463-.289.057-.027.114-.055.169-.084.182-.097.366-.19.55-.284.233-.118.466-.237.695-.361.122-.066.24-.141.358-.216a3.67 3.67 0 01.611-.334l.217-.082c.535-.199 1.06-.396 1.321-.994.025-.058.083-.099.141-.14a.917.917 0 00.083-.065l.311-.278c.258-.228.516-.456.751-.705.24-.255.396-.244.527.063.074.176.135.357.205.565l.109.319c.273-.846.659-1.518 1.377-1.957a.357.357 0 00.135-.262c.007-.408.279-.629.548-.847l.057-.047c.063-.052.13-.103.199-.155.244-.185.501-.378.581-.623.2-.595.327-1.214.453-1.835.041-.201.082-.402.126-.603.017-.075.017-.152.017-.229 0-.078-.001-.155.017-.23.058-.244.121-.487.184-.731.225-.869.451-1.741.446-2.653a64.725 64.725 0 00-.077-2.956c-.007-.131-.206-.283-.35-.37-.327-.2-.563-.409-.497-.855.024-.163-.019-.337-.055-.485-.015-.061-.029-.117-.037-.167h-.829l.059-.239c.042-.168.083-.337.132-.502.049-.162.117-.326.186-.49.146-.351.291-.702.243-1.024-.067-.446-.285-.87-.503-1.294a9.513 9.513 0 01-.281-.575c-.028-.063-.06-.127-.092-.191-.086-.174-.173-.349-.184-.527a59.154 59.154 0 01-.103-2.948c-.004-.304.012-.608.028-.912.014-.271.029-.541.029-.811-.001-.07 0-.141.002-.212.005-.342.011-.698-.122-.98-.191-.406-.133-.635.186-.879s.455-.545.504-.955c.044-.366.139-.724.234-1.082.043-.162.086-.323.124-.485a.399.399 0 00.015-.191c-.055-.185-.114-.37-.173-.554a40.423 40.423 0 01-.144-.459c-.264-.862-.003-1.779.631-1.997.332-.115.407-.281.422-.589.017-.327.045-.653.073-.98.028-.333.056-.667.073-1.001.005-.101-.038-.203-.081-.305-.023-.056-.047-.112-.063-.168-.02-.073-.044-.146-.067-.218-.059-.183-.119-.366-.128-.55l-.013-.26c-.018-.355-.035-.708-.081-1.053-1.458-1.015-3.978-2.252-8.219-3.123h-1.451c.364.392.622.87.751 1.389.048.175.238.311.452.464.102.073.211.151.311.238a1.647 1.647 0 00-.147.08c-.107.062-.208.121-.263.092-.34-.174-.695-.361-.961-.626-.375-.368-.72-.769-1.066-1.17-.136-.157-.272-.315-.41-.471h-8.41l-.646.231c-.603.216-1.206.431-1.804.658a1.972 1.972 0 00-.351.192c-.128.081-.255.162-.395.206l-.046.015c-.546.172-1.101.348-1.665.418-.362.045-.73.041-1.098.038a11.344 11.344 0 00-.783.01c-.077.004-.147.074-.219.145-.051.051-.104.104-.161.134l-.003.002c-.137.073-.332.177-.441.129-.145-.063-.342-.277-.326-.4.041-.303 1.424-1.265 2.792-2.217.293-.205.586-.408.865-.605-10.702.348-15.769 2.615-18.057 4.251zm26.865 1.847c.189.022.378.033.568.031l-.697-.753.068-.12 2.382.82c.015.007.041.017.041.03.048.148.099.296.151.444.129.374.259.749.345 1.132.039.169.004.354-.035.558-.018.098-.037.2-.05.307-.848.489-1.564.387-2.228-.393-.254-.298-.507-.307-.791-.061a1.959 1.959 0 00-.026.02c-.03.023-.064.049-.077.082-.272.731-.912.92-1.537 1.104l-.279.085a1.195 1.195 0 01-.876-.088 6.984 6.984 0 01-1.321-1.026c-.317-.31-.599-.369-.944-.128-.464.325-.906.671-.977 1.303-.049.363.046.73.265 1.023.218.294.543.49.905.547a.955.955 0 01.22.102c-.458.583-.877.634-1.538.181l-.1-.07c-.296-.21-.534-.378-.997-.088-.633.397-1.111.014-1.128-.732-.004-.2-.016-.4-.028-.601-.014-.256-.029-.513-.029-.769 0-.182.045-.362.133-.522.081-.14.179-.269.278-.399.088-.116.177-.232.252-.357.781-1.279 1.944-2.033 3.345-2.467.032-.01.071.004.128.024.032.011.069.024.114.036l-.579.513.014.086.013.085c.138.006.276.017.414.027.304.024.609.047.909.019l.04-.004c1.217-.117 2.435-.234 3.652.019z" fill="#FF7F22"/></g><defs><filter id="filter0_d" x="-74" y="-20" width="416" height="308" filterUnits="userSpaceOnUse" color-interpolation-filters="sRGB"><feFlood flood-opacity="0" result="BackgroundImageFix"/><feColorMatrix in="SourceAlpha" values="0 0 0 0 0 0 0 0 0 0 0 0 0 0 0 0 0 0 127 0" result="hardAlpha"/><feOffset dy="8"/><feGaussianBlur stdDeviation="45"/><feColorMatrix values="0 0 0 0 1 0 0 0 0 0.497333 0 0 0 0 0.133333 0 0 0 1 0"/><feBlend in2="BackgroundImageFix" result="effect1_dropShadow"/><feBlend in="SourceGraphic" in2="effect1_dropShadow" result="shape"/></filter></defs></svg>